<svg width="64" height="64" viewBox="0 0 64 64" fill="none" xmlns="http://www.w3.org/2000/svg">
<path d="M61.7777 28H60.4856C60.4856 28 53.6892 14.9731 53.6238 14.8868C53.2853 14.32 52.6676 13.9394 51.9595 13.9394H35.8788V6.42424C35.8788 5.08558 34.8742 4 33.5353 4H30.3838C29.0448 4 27.8788 5.08558 27.8788 6.42424V13.9394H12.2019C11.4938 13.9394 10.8761 14.32 10.5377 14.8868C10.4722 14.9728 3.67588 28 3.67588 28H2.62618C1.29285 28 0 28.9697 0 30.303V31.8788C0 38.5062 5.37261 43.8788 12 43.8788C18.6274 43.8788 24 38.5062 24 31.8788V30.303C24 28.9697 23.111 28 21.7777 28H20.4856L15.1845 17.8182H27.8788V52H14.3838C13.0451 52 11.8788 53.0853 11.8788 54.4242V57.5758C11.8788 58.9147 13.0451 60 14.3838 60H49.5353C50.8742 60 51.8788 58.9147 51.8788 57.5758V54.4242C51.8788 53.0853 50.8739 52 49.5353 52H35.8788V17.8182H48.977L43.6759 28H42.6262C41.2928 28 40 28.9697 40 30.303V31.8788C40 38.5062 45.3726 43.8788 52 43.8788C58.6274 43.8788 64 38.5062 64 31.8788V30.303C64 28.9697 63.111 28 61.7777 28ZM16.1127 28H8.04873L12.0807 20.2562L16.1127 28ZM48.0487 28L52.0807 20.2562L56.1127 28H48.0487Z" fill="#fff"/>
</svg>
