<svg width="62" height="52" viewBox="0 0 62 52" fill="none" xmlns="http://www.w3.org/2000/svg">
<path d="M25.121 12.022H27.852C28.207 12.022 28.4946 11.7343 28.4946 11.3794C28.4946 11.0245 28.207 10.7368 27.852 10.7368H25.121C24.7661 10.7368 24.4784 11.0245 24.4784 11.3794C24.4784 11.7343 24.7661 12.022 25.121 12.022Z" fill="#fff"/>
<path d="M16.9116 21.4023C25.7127 21.4023 32.873 27.757 32.873 36.5584C32.873 40.7765 31.1991 44.6311 28.1598 47.4117C25.2077 50.1126 21.2131 51.6001 16.9116 51.6001C12.6099 51.6001 8.61512 50.1126 5.66315 47.4117C2.62379 44.6308 0.949986 40.7765 0.949986 36.5584C0.949986 27.7571 8.11037 21.4023 16.9116 21.4023ZM16.9116 43.3584C20.661 43.3584 23.7116 40.3079 23.7116 36.5584C23.7116 32.8087 20.661 29.7582 16.9116 29.7582C13.162 29.7582 10.1115 32.8087 10.1115 36.5584C10.1117 40.3079 13.162 43.3584 16.9116 43.3584Z" fill="#fff"/>
<path d="M49.7498 29.6499C55.9807 29.6499 61.0498 34.7193 61.0498 40.9501C61.0498 43.9368 59.8646 46.6659 57.7125 48.6349C55.6224 50.5471 52.7946 51.6002 49.7497 51.6002C46.7046 51.6002 43.8766 50.5471 41.7866 48.6349C39.6346 46.6659 38.4494 43.9366 38.4494 40.9501C38.4495 34.7193 43.5187 29.6499 49.7498 29.6499ZM49.7498 45.7421C52.3918 45.7421 54.5413 43.5924 54.5413 40.9502C54.5413 38.308 52.3918 36.1584 49.7498 36.1584C47.1077 36.1584 44.9581 38.308 44.9581 40.9502C44.9581 43.5924 47.1077 45.7421 49.7498 45.7421Z" fill="#fff"/>
<path d="M29.3378 24.4495C26.0606 21.4008 21.6477 19.7218 16.9119 19.7218C13.7211 19.7218 10.6773 20.4848 8.02855 21.9145C8.01523 21.9216 8.00217 21.9259 7.98898 21.9315C7.74566 22.1065 7.44195 22.1989 7.12054 22.1703C6.40931 22.107 5.88426 21.479 5.94761 20.7678C5.95963 20.6324 7.1566 7.20075 7.38325 4.56605C7.74152 0.400546 10.7509 0.400546 11.8837 0.400546H29.3372C30.8948 0.397443 33.782 0.398866 34.6736 4.8139C35.1754 7.29836 36.2785 12.5272 37.1301 16.5201C41.6117 16.5201 45.812 16.5201 49.0585 16.5201V9.98025C49.0585 9.02673 49.8315 8.25382 50.7849 8.25382C51.7383 8.25382 52.5113 9.02686 52.5113 9.98025V16.5201C54.1678 16.5201 55.2175 16.5201 55.423 16.5201C60.4235 16.5201 61.9686 27.2608 59.2147 32.0765C56.8448 29.5502 53.4787 27.9689 49.7495 27.9689C43.2204 27.9689 37.8024 32.8146 36.9011 39.0987H34.3665C34.4902 38.2687 34.5537 37.4205 34.5537 36.5585C34.5539 31.8793 32.7014 27.5789 29.3378 24.4495ZM9.95938 4.78779C9.81728 6.43896 9.29534 12.3178 8.92169 16.5202C10.9669 16.5202 14.9075 16.5202 19.6663 16.5202V2.98637H11.8835C10.6251 2.98637 10.1084 3.05554 9.95938 4.78779ZM32.139 5.32577C31.6663 2.98559 30.7862 2.98728 29.3381 2.98637H21.7349V16.5201C25.7418 16.5201 30.1806 16.5201 34.4868 16.5201C33.5888 12.3001 32.4954 7.09059 32.139 5.32577Z" fill="#fff"/>
</svg>
