<svg width="36" height="44" viewBox="0 0 36 44" fill="none" xmlns="http://www.w3.org/2000/svg">
<path fill-rule="evenodd" clip-rule="evenodd" d="M22.9201 2.30663C22.9201 1.87167 22.7473 1.45453 22.4397 1.14697C22.1322 0.839411 21.715 0.666626 21.2801 0.666626H14.7201C14.2851 0.666626 13.868 0.839411 13.5604 1.14697C13.2529 1.45453 13.0801 1.87167 13.0801 2.30663V3.94663H22.9201V2.30663Z" fill="#fff"/>
<path fill-rule="evenodd" clip-rule="evenodd" d="M14.3334 15.44L5.08008 20.0667L6.21341 8.66666C6.25305 8.26229 6.44138 7.88703 6.74191 7.6136C7.04244 7.34017 7.43377 7.18803 7.84008 7.18666H28.1467C28.5576 7.18136 28.9555 7.33051 29.2617 7.60459C29.5679 7.87866 29.76 8.25769 29.8001 8.66666L30.9334 20.0267L21.6801 15.4C20.5359 14.8379 19.2768 14.549 18.002 14.5559C16.7272 14.5628 15.4714 14.8655 14.3334 15.44Z" fill="#fff"/>
<path fill-rule="evenodd" clip-rule="evenodd" d="M35.2402 27.4666L30.3202 42.2133C30.2109 42.5403 30.0013 42.8245 29.7212 43.0255C29.4412 43.2266 29.1049 43.3343 28.7602 43.3333H7.24016C6.89445 43.3384 6.55623 43.2323 6.27537 43.0307C5.99451 42.8291 5.78585 42.5425 5.68016 42.2133L0.760164 27.4666C0.635321 27.0915 0.650222 26.6838 0.802123 26.3188C0.954024 25.9537 1.2327 25.6558 1.58683 25.48L15.8002 18.3733C16.482 18.0277 17.2357 17.8477 18.0002 17.8477C18.7646 17.8477 19.5183 18.0277 20.2002 18.3733L34.4268 25.48C34.7747 25.6622 35.0471 25.9614 35.1959 26.3249C35.3447 26.6884 35.3604 27.0927 35.2402 27.4666Z" fill="#fff"/>
</svg>
