<svg width="64" height="64" viewBox="0 0 64 64" fill="none" xmlns="http://www.w3.org/2000/svg">
<path d="M64 39.5231C64 46.8557 64 54.1883 64 61.5209C64 63.324 63.3489 63.9851 61.5558 63.9851C58.761 63.9851 55.9562 63.9851 53.1614 63.9851C51.5486 63.9851 50.8474 63.2839 50.8474 61.6611C50.8474 46.9057 50.8474 32.1604 50.8474 17.405C50.8474 15.7823 51.5486 15.0811 53.1514 15.0811C55.9963 15.0811 58.8412 15.0811 61.676 15.0811C63.2888 15.0811 63.98 15.7823 63.99 17.405C64 24.7677 64 32.1504 64 39.5231Z" fill="#fff"/>
<path d="M1.07178 35.5663C1.09181 31.2589 5.71977 28.5943 9.4662 30.748C9.80679 30.9483 10.0272 30.9383 10.3477 30.7079C12.4914 29.1653 14.6551 27.6427 16.8289 26.1401C17.1294 25.9297 17.1895 25.7394 17.1194 25.3788C16.6285 22.7643 17.9808 20.2399 20.405 19.1781C22.759 18.1463 25.4937 18.8776 27.0665 20.9812C27.3269 21.3318 27.5673 21.3919 27.958 21.3118C30.0816 20.851 32.2053 20.4002 34.3389 19.9695C34.7396 19.8893 34.8999 19.709 35.0001 19.2983C35.8315 15.8524 39.4077 14.0693 42.6432 15.4717C43.0139 15.632 43.2342 15.5919 43.5247 15.3315C46.2394 12.8973 48.9641 10.4832 51.6888 8.06901C51.9793 7.81858 52.0594 7.5982 51.9492 7.21754C50.8373 3.39097 53.7323 -0.26532 57.6791 0.0151624C60.003 0.175438 61.6359 1.41757 62.5074 3.55124C63.3789 5.67489 62.8079 8.14915 61.1951 9.62168C59.4321 11.2244 57.3986 11.6652 55.1547 10.7536C54.714 10.5733 54.4635 10.6034 54.1129 10.9139C51.4183 13.3381 48.7136 15.7422 45.999 18.1363C45.7085 18.3968 45.6484 18.6171 45.7586 18.9878C46.57 21.7325 45.3879 24.377 42.8035 25.6793C40.4795 26.8513 37.5845 26.12 35.9217 23.9062C35.6913 23.5957 35.4709 23.5456 35.1403 23.6157C32.9666 24.0765 30.8029 24.5373 28.6291 24.9881C28.2685 25.0582 28.1183 25.2385 28.0381 25.5791C27.0965 29.3957 23.1798 31.0685 19.7238 29.1653C19.5535 29.0651 19.2029 29.0751 19.0427 29.1953C16.8289 30.728 14.6351 32.2706 12.4614 33.8433C12.281 33.9735 12.1508 34.3241 12.1809 34.5445C12.5916 37.2592 11.3294 39.6834 8.90524 40.7652C6.57123 41.807 3.80648 41.0657 2.17367 38.9421C1.42238 37.9303 1.07178 36.8084 1.07178 35.5663Z" fill="#fff"/>
<path d="M46.9807 46.9958C46.9807 51.8642 46.9807 56.7226 46.9807 61.5909C46.9807 63.3439 46.3296 63.975 44.5565 63.985C41.7617 63.985 38.9569 63.985 36.1621 63.985C34.5694 63.985 33.8782 63.2938 33.8782 61.7211C33.8782 51.9243 33.8782 42.1275 33.8782 32.3406C33.8782 30.778 34.5493 30.1068 36.102 30.1068C38.987 30.1068 41.8719 30.1068 44.7669 30.1068C46.3196 30.1068 46.9807 30.778 46.9807 32.3406C46.9807 37.219 46.9807 42.1074 46.9807 46.9958Z" fill="#fff"/>
<path d="M16.9793 48.8591C16.9793 44.6418 16.9793 40.4146 16.9793 36.1973C16.9793 34.5144 17.6404 33.8433 19.3033 33.8433C22.1682 33.8433 25.0331 33.8433 27.898 33.8433C29.4006 33.8433 30.1118 34.5445 30.1118 36.037C30.1118 44.6118 30.1118 53.1865 30.1118 61.7713C30.1118 63.2539 29.3706 63.9751 27.888 63.9751C25.003 63.9851 22.1081 63.9851 19.2231 63.9751C17.7005 63.9751 16.9692 63.2539 16.9692 61.7312C16.9793 57.4339 16.9793 53.1465 16.9793 48.8591Z" fill="#fff"/>
<path d="M0 54.5188C0 52.0946 0 49.6805 0 47.2563C0 45.8038 0.711222 45.0826 2.16372 45.0826C5.09876 45.0726 8.02379 45.0726 10.9588 45.0826C12.3713 45.0826 13.1025 45.8138 13.1025 47.2062C13.1125 52.0946 13.1125 56.973 13.1025 61.8615C13.1025 63.2238 12.3713 63.9651 11.0089 63.9751C8.03381 63.9851 5.05869 63.9851 2.08358 63.9751C0.721239 63.9651 0.0100172 63.2238 0 61.8414C0 59.3972 0 56.963 0 54.5188Z" fill="#fff"/>
</svg>
