<svg width="64" height="64" viewBox="0 0 64 64" fill="none" xmlns="http://www.w3.org/2000/svg">
<path d="M55.1108 14.2227H39.1108V58.6671H58.6664V17.7782C58.6664 16.8352 58.2918 15.9309 57.625 15.2641C56.9582 14.5973 56.0538 14.2227 55.1108 14.2227ZM46.222 44.4449H42.6664V40.8893H46.222V44.4449ZM46.222 35.556H42.6664V32.0004H46.222V35.556ZM46.222 26.6671H42.6664V23.1115H46.222V26.6671ZM53.3331 44.4449H49.7775V40.8893H53.3331V44.4449ZM53.3331 35.556H49.7775V32.0004H53.3331V35.556ZM53.3331 26.6671H49.7775V23.1115H53.3331V26.6671Z" fill="#fff"/>
<path d="M31.7864 5.33301H10.8797C9.88016 5.33301 8.92153 5.73009 8.21472 6.43689C7.50792 7.14369 7.11084 8.10233 7.11084 9.1019V58.6663H15.9997V53.333H26.6664V58.6663H35.5553V9.1019C35.5553 8.10233 35.1582 7.14369 34.4514 6.43689C33.7446 5.73009 32.786 5.33301 31.7864 5.33301ZM15.9997 44.4441H12.4442V40.8886H15.9997V44.4441ZM15.9997 35.5552H12.4442V31.9997H15.9997V35.5552ZM15.9997 26.6663H12.4442V23.1108H15.9997V26.6663ZM15.9997 17.7775H12.4442V14.2219H15.9997V17.7775ZM23.1108 44.4441H19.5553V40.8886H23.1108V44.4441ZM23.1108 35.5552H19.5553V31.9997H23.1108V35.5552ZM23.1108 26.6663H19.5553V23.1108H23.1108V26.6663ZM23.1108 17.7775H19.5553V14.2219H23.1108V17.7775ZM30.222 44.4441H26.6664V40.8886H30.222V44.4441ZM30.222 35.5552H26.6664V31.9997H30.222V35.5552ZM30.222 26.6663H26.6664V23.1108H30.222V26.6663ZM30.222 17.7775H26.6664V14.2219H30.222V17.7775Z" fill="#fff"/>

</svg>
