<svg width="54" height="48" viewBox="0 0 54 48" fill="none" xmlns="http://www.w3.org/2000/svg">
    <path fill="#fff" d="M29.9803 34.6667H24.647C23.1803 34.6667 21.9803 33.4667 21.9803 32H3.34031V42.6667C3.34031 45.6 5.74031 48 8.67364 48H45.9803C48.9136 48 51.3136 45.6 51.3136 42.6667V32H32.647C32.647 33.4667 31.447 34.6667 29.9803 34.6667ZM48.647 10.6667H37.9803C37.9803 4.77333 33.207 0 27.3136 0C21.4203 0 16.647 4.77333 16.647 10.6667H5.98031C3.04697 10.6667 0.646973 13.0667 0.646973 16V24C0.646973 26.96 3.02031 29.3333 5.98031 29.3333H21.9803V26.6667C21.9803 25.2 23.1803 24 24.647 24H29.9803C31.447 24 32.647 25.2 32.647 26.6667V29.3333H48.647C51.5803 29.3333 53.9803 26.9333 53.9803 24V16C53.9803 13.0667 51.5803 10.6667 48.647 10.6667ZM21.9803 10.6667C21.9803 7.73333 24.3803 5.33333 27.3136 5.33333C30.247 5.33333 32.647 7.73333 32.647 10.6667H21.9536H21.9803Z"/>
</svg>
