<svg width="64" height="64" viewBox="0 0 64 64" fill="none" xmlns="http://www.w3.org/2000/svg">
<path d="M50.7218 31.784C57.9428 31.784 63.7966 28.2506 63.7966 23.892C63.7966 19.5334 57.9428 16 50.7218 16C43.5008 16 37.647 19.5334 37.647 23.892C37.647 28.2506 43.5008 31.784 50.7218 31.784Z" fill="#fff"/>
<path fill-rule="evenodd" clip-rule="evenodd" d="M50.9176 36.3241C41.5661 36.3241 37.8428 32.16 37.8428 29.748V40.0801C37.8428 44.4401 43.6969 47.9681 50.9176 47.9681C58.1458 47.9681 63.9999 44.4401 63.9999 40.0801V29.996C63.9999 32.412 60.2729 36.3241 50.9176 36.3241Z" fill="#fff"/>
<path fill-rule="evenodd" clip-rule="evenodd" d="M50.9176 52.288C42.5524 52.288 37.8428 48.284 37.8428 45.872V56.1081C37.8428 60.4681 43.6969 64 50.9176 64C58.1458 64 63.9999 60.4681 63.9999 56.1081V45.748C63.9999 48.16 59.2865 52.288 50.9176 52.288Z" fill="#fff"/>
<path d="M18.5863 15.784C26.7721 15.784 33.4079 12.2506 33.4079 7.892C33.4079 3.53337 26.7721 0 18.5863 0C10.4005 0 3.76465 3.53337 3.76465 7.892C3.76465 12.2506 10.4005 15.784 18.5863 15.784Z" fill="#fff"/>
<path fill-rule="evenodd" clip-rule="evenodd" d="M19.057 20.324C8.45935 20.324 4.23535 16.16 4.23535 13.748V24.08C4.23535 28.44 10.8725 31.9681 19.057 31.9681C27.249 31.9681 33.8824 28.44 33.8824 24.08V13.996C33.8824 16.412 29.6546 20.324 19.057 20.324Z" fill="#fff"/>
<path fill-rule="evenodd" clip-rule="evenodd" d="M19.057 36.288C9.5737 36.288 4.23535 32.284 4.23535 29.872V40.108C4.23535 44.468 10.8725 48 19.057 48C27.249 48 33.8824 44.468 33.8824 40.108V29.748C33.8824 32.16 28.5365 36.288 19.057 36.288Z" fill="#fff"/>
<path fill-rule="evenodd" clip-rule="evenodd" d="M19.057 52.288C9.5737 52.288 4.23535 48.284 4.23535 45.872V56.1081C4.23535 60.4681 10.8725 64 19.057 64C27.249 64 33.8824 60.4681 33.8824 56.1081V45.748C33.8824 48.16 28.5365 52.288 19.057 52.288Z" fill="#fff"/>
</svg>
