<svg width="64" height="64" viewBox="0 0 64 64" fill="none" xmlns="http://www.w3.org/2000/svg">
<path d="M8.00016 10.8398H21.3335C22.0407 10.8398 22.719 11.1208 23.2191 11.6209C23.7192 12.121 24.0002 12.7993 24.0002 13.5065V50.8398C24.0002 51.5471 23.7192 52.2254 23.2191 52.7255C22.719 53.2255 22.0407 53.5065 21.3335 53.5065H8.00016C7.29292 53.5065 6.61464 53.2255 6.11454 52.7255C5.61445 52.2254 5.3335 51.5471 5.3335 50.8398V13.5065C5.3335 12.7993 5.61445 12.121 6.11454 11.6209C6.61464 11.1208 7.29292 10.8398 8.00016 10.8398ZM8.00016 40.1732V45.5065H13.3335V40.1732H8.00016ZM32.0002 18.8398H53.3335C54.748 18.8398 56.1045 19.4017 57.1047 20.4019C58.1049 21.4021 58.6668 22.7587 58.6668 24.1732V40.1732C58.6668 41.5877 58.1049 42.9442 57.1047 43.9444C56.1045 44.9446 54.748 45.5065 53.3335 45.5065H32.0002C30.5857 45.5065 29.2291 44.9446 28.2289 43.9444C27.2287 42.9442 26.6668 41.5877 26.6668 40.1732V24.1732C26.6668 22.7587 27.2287 21.4021 28.2289 20.4019C29.2291 19.4017 30.5857 18.8398 32.0002 18.8398ZM37.3335 48.1732H48.0002C48.7074 48.1732 49.3857 48.4541 49.8858 48.9542C50.3859 49.4543 50.6668 50.1326 50.6668 50.8398C50.6668 51.5471 50.3859 52.2254 49.8858 52.7255C49.3857 53.2255 48.7074 53.5065 48.0002 53.5065H37.3335C36.6263 53.5065 35.948 53.2255 35.4479 52.7255C34.9478 52.2254 34.6668 51.5471 34.6668 50.8398C34.6668 50.1326 34.9478 49.4543 35.4479 48.9542C35.948 48.4541 36.6263 48.1732 37.3335 48.1732Z" fill="#fff"/>
</svg>
