<svg width="64" height="64" viewBox="0 0 64 64" fill="none" xmlns="http://www.w3.org/2000/svg">
<path d="M42.2988 20.4255C42.7702 19.1996 43.0298 17.8687 43.0298 16.4766C43.0298 11.0833 39.1578 6.59704 34.0426 5.63867V0H29.9574V5.63867C24.8422 6.5969 20.9702 11.0832 20.9702 16.4766C20.9702 17.8687 21.2298 19.1996 21.7012 20.4255H42.2988Z" fill="#fff"/>
<path d="M41.2687 24.5107H22.7305V28.5958H41.2687V24.5107Z" fill="#fff"/>
<path d="M15.7712 27.5661C15.7712 25.0928 14.2145 22.9834 12.0266 22.1589V18.3682H7.94146V22.1589C5.75347 22.9834 4.19678 25.0928 4.19678 27.5662V28.5959H15.7712V27.5661Z" fill="#fff"/>
<path d="M59.8025 27.5662C59.8025 25.0928 58.2458 22.9834 56.0578 22.1589V18.3682H51.9727V22.1589C49.7847 22.9834 48.228 25.0928 48.228 27.5661V28.596H59.8025V27.5662Z" fill="#fff"/>
<path d="M31.9997 44.2549C28.6209 44.2549 25.8721 47.0038 25.8721 50.3825V63.9996H38.1274V50.3825C38.1274 47.0038 35.3785 44.2549 31.9997 44.2549Z" fill="#fff"/>
<path d="M1.021 32.6807V63.9998H9.36142V50.3828H13.4465V63.9998H21.787V50.3828C21.787 44.7515 26.3684 40.17 31.9997 40.17C37.631 40.17 42.2125 44.7515 42.2125 50.3828V63.9998H50.5529V50.3828H54.638V63.9998H62.9784V32.6807H1.021ZM13.4465 46.2977H9.36142V39.4892H13.4465V46.2977ZM54.638 46.2977H50.5529V39.4892H54.638V46.2977Z" fill="#fff"/>
</svg>
