<svg width="82" height="59" viewBox="0 0 82 59" fill="none" xmlns="http://www.w3.org/2000/svg">
<path d="M1.73899 2.70372C2.42327 2.70372 2.97798 2.16187 2.97798 1.49346C2.97798 0.825054 2.42327 0.283203 1.73899 0.283203C1.05471 0.283203 0.5 0.825054 0.5 1.49346C0.5 2.16187 1.05471 2.70372 1.73899 2.70372Z" fill="white"/>
<path d="M4.21635 10.7203C5.67044 10.7203 6.84921 9.56883 6.84921 8.14846C6.84921 6.72809 5.67044 5.57666 4.21635 5.57666C2.76227 5.57666 1.5835 6.72809 1.5835 8.14846C1.5835 9.56883 2.76227 10.7203 4.21635 10.7203Z" fill="white"/>
<path d="M7.31352 17.378C8.7676 17.378 9.94637 16.2265 9.94637 14.8062C9.94637 13.3858 8.7676 12.2344 7.31352 12.2344C5.85943 12.2344 4.68066 13.3858 4.68066 14.8062C4.68066 16.2265 5.85943 17.378 7.31352 17.378Z" fill="white"/>
<path d="M10.721 23.1264C11.4908 23.1264 12.1149 22.5168 12.1149 21.7649C12.1149 21.0129 11.4908 20.4033 10.721 20.4033C9.9512 20.4033 9.32715 21.0129 9.32715 21.7649C9.32715 22.5168 9.9512 23.1264 10.721 23.1264Z" fill="white"/>
<path d="M15.059 30.6897C15.9143 30.6897 16.6077 30.0124 16.6077 29.1769C16.6077 28.3414 15.9143 27.6641 15.059 27.6641C14.2036 27.6641 13.5103 28.3414 13.5103 29.1769C13.5103 30.0124 14.2036 30.6897 15.059 30.6897Z" fill="white"/>
<path d="M20.3252 40.2223C22.207 40.2223 23.7324 38.7322 23.7324 36.8941C23.7324 35.056 22.207 33.5659 20.3252 33.5659C18.4434 33.5659 16.918 35.056 16.918 36.8941C16.918 38.7322 18.4434 40.2223 20.3252 40.2223Z" fill="white"/>
<path d="M26.2067 47.029C27.3187 47.029 28.2201 46.1485 28.2201 45.0624C28.2201 43.9762 27.3187 43.0957 26.2067 43.0957C25.0948 43.0957 24.1934 43.9762 24.1934 45.0624C24.1934 46.1485 25.0948 47.029 26.2067 47.029Z" fill="white"/>
<path d="M33.0233 58.3751C35.6748 58.3751 37.8243 56.2754 37.8243 53.6854C37.8243 51.0953 35.6748 48.9956 33.0233 48.9956C30.3717 48.9956 28.2222 51.0953 28.2222 53.6854C28.2222 56.2754 30.3717 58.3751 33.0233 58.3751Z" fill="white"/>
<path d="M11.6491 3.61144C12.3334 3.61144 12.8881 3.06958 12.8881 2.40118C12.8881 1.73277 12.3334 1.19092 11.6491 1.19092C10.9649 1.19092 10.4102 1.73277 10.4102 2.40118C10.4102 3.06958 10.9649 3.61144 11.6491 3.61144Z" fill="white"/>
<path d="M13.6628 9.35851C14.3471 9.35851 14.9018 8.81666 14.9018 8.14825C14.9018 7.47984 14.3471 6.93799 13.6628 6.93799C12.9785 6.93799 12.4238 7.47984 12.4238 8.14825C12.4238 8.81666 12.9785 9.35851 13.6628 9.35851Z" fill="white"/>
<path d="M16.1431 16.4698C17.5972 16.4698 18.776 15.3183 18.776 13.898C18.776 12.4776 17.5972 11.3262 16.1431 11.3262C14.689 11.3262 13.5103 12.4776 13.5103 13.898C13.5103 15.3183 14.689 16.4698 16.1431 16.4698Z" fill="white"/>
<path d="M19.3948 21.4625C20.079 21.4625 20.6337 20.9207 20.6337 20.2523C20.6337 19.5838 20.079 19.042 19.3948 19.042C18.7105 19.042 18.1558 19.5838 18.1558 20.2523C18.1558 20.9207 18.7105 21.4625 19.3948 21.4625Z" fill="white"/>
<path d="M23.421 29.6327C24.9607 29.6327 26.2088 28.4135 26.2088 26.9096C26.2088 25.4057 24.9607 24.1865 23.421 24.1865C21.8814 24.1865 20.6333 25.4057 20.6333 26.9096C20.6333 28.4135 21.8814 29.6327 23.421 29.6327Z" fill="white"/>
<path d="M28.2215 36.8926C29.9322 36.8926 31.319 35.538 31.319 33.867C31.319 32.1959 29.9322 30.8413 28.2215 30.8413C26.5108 30.8413 25.124 32.1959 25.124 33.867C25.124 35.538 26.5108 36.8926 28.2215 36.8926Z" fill="white"/>
<path d="M34.106 42.794C35.0468 42.794 35.8096 42.049 35.8096 41.1299C35.8096 40.2109 35.0468 39.4658 34.106 39.4658C33.1651 39.4658 32.4023 40.2109 32.4023 41.1299C32.4023 42.049 33.1651 42.794 34.106 42.794Z" fill="white"/>
<path d="M41.6953 52.6263C44.0047 52.6263 45.8769 50.7975 45.8769 48.5417C45.8769 46.2858 44.0047 44.457 41.6953 44.457C39.3858 44.457 37.5137 46.2858 37.5137 48.5417C37.5137 50.7975 39.3858 52.6263 41.6953 52.6263Z" fill="white"/>
<path d="M20.6344 4.21707C21.2332 4.21707 21.7185 3.74295 21.7185 3.1581C21.7185 2.57324 21.2332 2.09912 20.6344 2.09912C20.0357 2.09912 19.5503 2.57324 19.5503 3.1581C19.5503 3.74295 20.0357 4.21707 20.6344 4.21707Z" fill="white"/>
<path d="M22.491 10.2676C23.6885 10.2676 24.6592 9.3194 24.6592 8.14969C24.6592 6.97998 23.6885 6.03174 22.491 6.03174C21.2935 6.03174 20.3228 6.97998 20.3228 8.14969C20.3228 9.3194 21.2935 10.2676 22.491 10.2676Z" fill="white"/>
<path d="M24.6605 15.5619C25.9435 15.5619 26.9836 14.5459 26.9836 13.2927C26.9836 12.0394 25.9435 11.0234 24.6605 11.0234C23.3775 11.0234 22.3374 12.0394 22.3374 13.2927C22.3374 14.5459 23.3775 15.5619 24.6605 15.5619Z" fill="white"/>
<path d="M27.6042 20.2516C28.2885 20.2516 28.8432 19.7097 28.8432 19.0413C28.8432 18.3729 28.2885 17.8311 27.6042 17.8311C26.9199 17.8311 26.3652 18.3729 26.3652 19.0413C26.3652 19.7097 26.9199 20.2516 27.6042 20.2516Z" fill="white"/>
<path d="M31.4748 26.1515C32.1591 26.1515 32.7138 25.6096 32.7138 24.9412C32.7138 24.2728 32.1591 23.731 31.4748 23.731C30.7906 23.731 30.2358 24.2728 30.2358 24.9412C30.2358 25.6096 30.7906 26.1515 31.4748 26.1515Z" fill="white"/>
<path d="M36.1207 33.868C37.6604 33.868 38.9085 32.6489 38.9085 31.145C38.9085 29.641 37.6604 28.4219 36.1207 28.4219C34.5811 28.4219 33.333 29.641 33.333 31.145C33.333 32.6489 34.5811 33.868 36.1207 33.868Z" fill="white"/>
<path d="M42.0047 40.6729C43.7154 40.6729 45.1022 39.3183 45.1022 37.6472C45.1022 35.9762 43.7154 34.6216 42.0047 34.6216C40.294 34.6216 38.9072 35.9762 38.9072 37.6472C38.9072 39.3183 40.294 40.6729 42.0047 40.6729Z" fill="white"/>
<path d="M49.13 47.7856C51.0973 47.7856 52.6921 46.2278 52.6921 44.3062C52.6921 42.3845 51.0973 40.8267 49.13 40.8267C47.1627 40.8267 45.5679 42.3845 45.5679 44.3062C45.5679 46.2278 47.1627 47.7856 49.13 47.7856Z" fill="white"/>
<path d="M56.4086 43.5501C58.2048 43.5501 59.6609 42.1278 59.6609 40.3732C59.6609 38.6186 58.2048 37.1963 56.4086 37.1963C54.6124 37.1963 53.1562 38.6186 53.1562 40.3732C53.1562 42.1278 54.6124 43.5501 56.4086 43.5501Z" fill="white"/>
<path d="M49.5934 37.4984C51.133 37.4984 52.3811 36.2792 52.3811 34.7753C52.3811 33.2714 51.133 32.0522 49.5934 32.0522C48.0538 32.0522 46.8057 33.2714 46.8057 34.7753C46.8057 36.2792 48.0538 37.4984 49.5934 37.4984Z" fill="white"/>
<path d="M43.8647 31.2966C45.2332 31.2966 46.3427 30.2129 46.3427 28.8761C46.3427 27.5393 45.2332 26.4556 43.8647 26.4556C42.4961 26.4556 41.3867 27.5393 41.3867 28.8761C41.3867 30.2129 42.4961 31.2966 43.8647 31.2966Z" fill="white"/>
<path d="M39.374 25.8498C40.7425 25.8498 41.852 24.7661 41.852 23.4293C41.852 22.0925 40.7425 21.0088 39.374 21.0088C38.0054 21.0088 36.896 22.0925 36.896 23.4293C36.896 24.7661 38.0054 25.8498 39.374 25.8498Z" fill="white"/>
<path d="M35.6578 19.1936C36.2566 19.1936 36.742 18.7195 36.742 18.1347C36.742 17.5498 36.2566 17.0757 35.6578 17.0757C35.0591 17.0757 34.5737 17.5498 34.5737 18.1347C34.5737 18.7195 35.0591 19.1936 35.6578 19.1936Z" fill="white"/>
<path d="M32.714 14.9568C33.826 14.9568 34.7274 14.0763 34.7274 12.9901C34.7274 11.9039 33.826 11.0234 32.714 11.0234C31.6021 11.0234 30.7007 11.9039 30.7007 12.9901C30.7007 14.0763 31.6021 14.9568 32.714 14.9568Z" fill="white"/>
<path d="M30.5456 10.4182C31.6575 10.4182 32.5589 9.53769 32.5589 8.45153C32.5589 7.36537 31.6575 6.48486 30.5456 6.48486C29.4336 6.48486 28.5322 7.36537 28.5322 8.45153C28.5322 9.53769 29.4336 10.4182 30.5456 10.4182Z" fill="white"/>
<path d="M28.6875 4.66988C29.2008 4.66988 29.6168 4.26349 29.6168 3.76219C29.6168 3.26088 29.2008 2.85449 28.6875 2.85449C28.1743 2.85449 27.7583 3.26088 27.7583 3.76219C27.7583 4.26349 28.1743 4.66988 28.6875 4.66988Z" fill="white"/>
<path d="M35.9659 5.27535C36.4791 5.27535 36.8951 4.86896 36.8951 4.36766C36.8951 3.86635 36.4791 3.45996 35.9659 3.45996C35.4527 3.45996 35.0366 3.86635 35.0366 4.36766C35.0366 4.86896 35.4527 5.27535 35.9659 5.27535Z" fill="white"/>
<path d="M37.9786 10.268C39.005 10.268 39.8371 9.45521 39.8371 8.4526C39.8371 7.44998 39.005 6.63721 37.9786 6.63721C36.9522 6.63721 36.1201 7.44998 36.1201 8.4526C36.1201 9.45521 36.9522 10.268 37.9786 10.268Z" fill="white"/>
<path d="M40.148 14.6542C41.1744 14.6542 42.0065 13.8414 42.0065 12.8388C42.0065 11.8362 41.1744 11.0234 40.148 11.0234C39.1216 11.0234 38.2896 11.8362 38.2896 12.8388C38.2896 13.8414 39.1216 14.6542 40.148 14.6542Z" fill="white"/>
<path d="M43.09 19.345C44.202 19.345 45.1034 18.4645 45.1034 17.3783C45.1034 16.2921 44.202 15.4116 43.09 15.4116C41.9781 15.4116 41.0767 16.2921 41.0767 17.3783C41.0767 18.4645 41.9781 19.345 43.09 19.345Z" fill="white"/>
<path d="M46.652 23.2771C47.2507 23.2771 47.7361 22.803 47.7361 22.2182C47.7361 21.6333 47.2507 21.1592 46.652 21.1592C46.0532 21.1592 45.5679 21.6333 45.5679 22.2182C45.5679 22.803 46.0532 23.2771 46.652 23.2771Z" fill="white"/>
<path d="M51.2986 29.025C52.4961 29.025 53.4668 28.0767 53.4668 26.907C53.4668 25.7373 52.4961 24.7891 51.2986 24.7891C50.1011 24.7891 49.1304 25.7373 49.1304 26.907C49.1304 28.0767 50.1011 29.025 51.2986 29.025Z" fill="white"/>
<path d="M56.8721 34.6241C58.3262 34.6241 59.505 33.4726 59.505 32.0523C59.505 30.6319 58.3262 29.4805 56.8721 29.4805C55.418 29.4805 54.2393 30.6319 54.2393 32.0523C54.2393 33.4726 55.418 34.6241 56.8721 34.6241Z" fill="white"/>
<path d="M63.3797 38.5585C64.1495 38.5585 64.7736 37.9489 64.7736 37.197C64.7736 36.445 64.1495 35.8354 63.3797 35.8354C62.6099 35.8354 61.9858 36.445 61.9858 37.197C61.9858 37.9489 62.6099 38.5585 63.3797 38.5585Z" fill="white"/>
<path d="M63.3783 32.3549C64.6613 32.3549 65.7014 31.3389 65.7014 30.0856C65.7014 28.8324 64.6613 27.8164 63.3783 27.8164C62.0953 27.8164 61.0552 28.8324 61.0552 30.0856C61.0552 31.3389 62.0953 32.3549 63.3783 32.3549Z" fill="white"/>
<path d="M69.7268 35.5309C70.4111 35.5309 70.9658 34.989 70.9658 34.3206C70.9658 33.6522 70.4111 33.1104 69.7268 33.1104C69.0425 33.1104 68.4878 33.6522 68.4878 34.3206C68.4878 34.989 69.0425 35.5309 69.7268 35.5309Z" fill="white"/>
<path d="M57.9588 27.6641C59.1562 27.6641 60.127 26.7159 60.127 25.5462C60.127 24.3765 59.1562 23.4282 57.9588 23.4282C56.7613 23.4282 55.7905 24.3765 55.7905 25.5462C55.7905 26.7159 56.7613 27.6641 57.9588 27.6641Z" fill="white"/>
<path d="M53.4655 23.1257C54.5775 23.1257 55.4789 22.2452 55.4789 21.1591C55.4789 20.0729 54.5775 19.1924 53.4655 19.1924C52.3536 19.1924 51.4521 20.0729 51.4521 21.1591C51.4521 22.2452 52.3536 23.1257 53.4655 23.1257Z" fill="white"/>
<path d="M49.9048 17.6796C50.418 17.6796 50.8341 17.2733 50.8341 16.7719C50.8341 16.2706 50.418 15.8643 49.9048 15.8643C49.3916 15.8643 48.9756 16.2706 48.9756 16.7719C48.9756 17.2733 49.3916 17.6796 49.9048 17.6796Z" fill="white"/>
<path d="M46.961 14.5038C47.9874 14.5038 48.8195 13.691 48.8195 12.6884C48.8195 11.6858 47.9874 10.873 46.961 10.873C45.9346 10.873 45.1025 11.6858 45.1025 12.6884C45.1025 13.691 45.9346 14.5038 46.961 14.5038Z" fill="white"/>
<path d="M44.6382 9.81393C45.1514 9.81393 45.5675 9.40754 45.5675 8.90623C45.5675 8.40492 45.1514 7.99854 44.6382 7.99854C44.125 7.99854 43.709 8.40492 43.709 8.90623C43.709 9.40754 44.125 9.81393 44.6382 9.81393Z" fill="white"/>
<path d="M42.6265 5.88082C43.1397 5.88082 43.5558 5.47443 43.5558 4.97312C43.5558 4.47182 43.1397 4.06543 42.6265 4.06543C42.1133 4.06543 41.6973 4.47182 41.6973 4.97312C41.6973 5.47443 42.1133 5.88082 42.6265 5.88082Z" fill="white"/>
<path d="M48.5886 6.25785C49.0591 6.25785 49.4404 5.88533 49.4404 5.4258C49.4404 4.96627 49.0591 4.59375 48.5886 4.59375C48.1182 4.59375 47.7368 4.96627 47.7368 5.4258C47.7368 5.88533 48.1182 6.25785 48.5886 6.25785Z" fill="white"/>
<path d="M50.6792 10.7213C51.6201 10.7213 52.3828 9.97623 52.3828 9.05717C52.3828 8.13811 51.6201 7.39307 50.6792 7.39307C49.7383 7.39307 48.9756 8.13811 48.9756 9.05717C48.9756 9.97623 49.7383 10.7213 50.6792 10.7213Z" fill="white"/>
<path d="M53.1558 14.3517C54.0966 14.3517 54.8594 13.6066 54.8594 12.6875C54.8594 11.7685 54.0966 11.0234 53.1558 11.0234C52.2149 11.0234 51.4521 11.7685 51.4521 12.6875C51.4521 13.6066 52.2149 14.3517 53.1558 14.3517Z" fill="white"/>
<path d="M56.1006 17.982C57.0415 17.982 57.8042 17.237 57.8042 16.3179C57.8042 15.3989 57.0415 14.6538 56.1006 14.6538C55.1597 14.6538 54.397 15.3989 54.397 16.3179C54.397 17.237 55.1597 17.982 56.1006 17.982Z" fill="white"/>
<path d="M59.6622 21.3105C60.1754 21.3105 60.5914 20.9041 60.5914 20.4028C60.5914 19.9015 60.1754 19.4951 59.6622 19.4951C59.1489 19.4951 58.7329 19.9015 58.7329 20.4028C58.7329 20.9041 59.1489 21.3105 59.6622 21.3105Z" fill="white"/>
<path d="M63.9992 26.303C65.1111 26.303 66.0126 25.4225 66.0126 24.3363C66.0126 23.2501 65.1111 22.3696 63.9992 22.3696C62.8873 22.3696 61.9858 23.2501 61.9858 24.3363C61.9858 25.4225 62.8873 26.303 63.9992 26.303Z" fill="white"/>
<path d="M69.1071 29.179C69.7058 29.179 70.1912 28.7049 70.1912 28.12C70.1912 27.5352 69.7058 27.061 69.1071 27.061C68.5083 27.061 68.0229 27.5352 68.0229 28.12C68.0229 28.7049 68.5083 29.179 69.1071 29.179Z" fill="white"/>
<path d="M75.3017 34.4714C76.6703 34.4714 77.7797 33.3877 77.7797 32.0509C77.7797 30.7141 76.6703 29.6304 75.3017 29.6304C73.9332 29.6304 72.8237 30.7141 72.8237 32.0509C72.8237 33.3877 73.9332 34.4714 75.3017 34.4714Z" fill="white"/>
<path d="M80.4161 31.1453C81.0149 31.1453 81.5003 30.6712 81.5003 30.0863C81.5003 29.5015 81.0149 29.0273 80.4161 29.0273C79.8174 29.0273 79.332 29.5015 79.332 30.0863C79.332 30.6712 79.8174 31.1453 80.4161 31.1453Z" fill="white"/>
<path d="M74.2219 28.7224C75.3338 28.7224 76.2352 27.8419 76.2352 26.7557C76.2352 25.6696 75.3338 24.7891 74.2219 24.7891C73.1099 24.7891 72.2085 25.6696 72.2085 26.7557C72.2085 27.8419 73.1099 28.7224 74.2219 28.7224Z" fill="white"/>
<path d="M69.1099 24.0327C69.6231 24.0327 70.0391 23.6263 70.0391 23.125C70.0391 22.6237 69.6231 22.2173 69.1099 22.2173C68.5967 22.2173 68.1807 22.6237 68.1807 23.125C68.1807 23.6263 68.5967 24.0327 69.1099 24.0327Z" fill="white"/>
<path d="M64.9248 21.1593C65.8657 21.1593 66.6284 20.4142 66.6284 19.4952C66.6284 18.5761 65.8657 17.8311 64.9248 17.8311C63.9839 17.8311 63.2212 18.5761 63.2212 19.4952C63.2212 20.4142 63.9839 21.1593 64.9248 21.1593Z" fill="white"/>
<path d="M61.3643 17.6793C62.3051 17.6793 63.0679 16.9342 63.0679 16.0152C63.0679 15.0961 62.3051 14.3511 61.3643 14.3511C60.4234 14.3511 59.6606 15.0961 59.6606 16.0152C59.6606 16.9342 60.4234 17.6793 61.3643 17.6793Z" fill="white"/>
<path d="M58.4228 14.0491C59.2781 14.0491 59.9715 13.3718 59.9715 12.5363C59.9715 11.7008 59.2781 11.0234 58.4228 11.0234C57.5674 11.0234 56.874 11.7008 56.874 12.5363C56.874 13.3718 57.5674 14.0491 58.4228 14.0491Z" fill="white"/>
<path d="M56.101 10.5715C56.9563 10.5715 57.6497 9.89423 57.6497 9.05872C57.6497 8.22321 56.9563 7.5459 56.101 7.5459C55.2456 7.5459 54.5522 8.22321 54.5522 9.05872C54.5522 9.89423 55.2456 10.5715 56.101 10.5715Z" fill="white"/>
<path d="M53.7778 6.48402C54.2055 6.48402 54.5522 6.14536 54.5522 5.7276C54.5522 5.30985 54.2055 4.97119 53.7778 4.97119C53.3501 4.97119 53.0034 5.30985 53.0034 5.7276C53.0034 6.14536 53.3501 6.48402 53.7778 6.48402Z" fill="white"/>
</svg>
