<svg width="54" height="64" viewBox="0 0 54 64" fill="none" xmlns="http://www.w3.org/2000/svg">
<path d="M50.3066 43.0529C47.1301 43.2492 42.9506 46.4238 38.9195 48.2495C33.9784 50.4866 26.288 48.6881 26.2871 48.6881C27.4736 48.1314 32.2946 46.983 33.2655 46.5572C38.4265 44.2856 37.9886 39.5549 35.5307 39.5946C32.2835 39.6464 30.3769 40.4434 23.8978 41.3269C18.9864 41.9946 13.1778 41.7504 10.3916 42.8144C6.45848 44.3166 0.124496 54.4242 0.124496 54.4242L9.91838 63.9158C9.91838 63.9158 15.9816 57.9441 18.9316 57.9441C25.6542 57.9441 25.927 57.8541 32.1681 57.5146C34.8223 57.3725 35.3764 57.2634 36.8966 56.7516C44.987 54.0157 53.6757 46.7301 53.8351 45.8537C54.2046 43.8238 51.9848 42.9515 50.3066 43.0529Z" fill="#fff"/>
<path d="M30.9671 9.51217C32.3295 8.70138 33.5457 7.57487 34.6191 6.43082C35.5239 5.46765 36.72 4.23181 36.5906 2.80384C36.5 1.79867 35.6559 1.30028 34.7331 1.186C34.4363 1.1488 34.1378 1.1392 33.8381 1.14355C33.6369 1.1464 33.2297 1.09271 33.072 1.24599C32.7413 1.5674 32.4126 1.88821 32.0843 2.21172C32.0138 1.99229 31.9449 1.77242 31.8752 1.54985C31.8341 1.41877 31.7182 1.36823 31.5887 1.38682C30.6776 1.5308 29.7852 1.71003 28.8682 1.541C27.7423 1.33328 26.6343 1.01817 25.5219 0.757654C25.3939 0.726758 25.2744 0.796049 25.2344 0.920383C25.1442 1.20625 25.0533 1.49181 24.9636 1.77722C24.5705 1.38817 24.1755 1.00362 23.7788 0.617872C23.6848 0.527734 23.555 0.331409 23.4131 0.307712C23.1493 0.259718 22.8845 0.214274 22.6182 0.172429C22.2034 0.107788 21.7868 0.059494 21.368 0.0269482C20.4483 -0.0445926 18.7868 -0.0600405 18.7356 1.21255C18.6873 3.24988 20.4851 4.86427 21.7742 6.2165C22.5721 7.05399 23.5294 8.02257 24.0659 9.11773C18.3687 10.9592 13.5108 17.8764 13.5108 25.3179C13.5108 34.0114 17.6365 36.3944 27.0007 36.3944C36.3638 36.3944 40.4889 34.0114 40.4889 25.3179C40.4887 18.3304 36.206 11.8072 30.9671 9.51217ZM30.9629 26.5969C30.6199 27.1088 30.147 27.5191 29.6037 27.8058C29.3173 27.9536 29.0163 28.0714 28.7084 28.1624C28.6647 28.1771 28.2629 28.2863 28.2629 28.2863V29.4095C28.2629 29.932 28.163 30.4856 27.6949 30.7961C27.1834 31.1322 26.4264 31.0318 26.0467 30.5429C25.7684 30.186 25.7525 29.7164 25.7525 29.2829C25.7525 28.9542 25.7525 28.2854 25.7525 28.2854C25.7525 28.2854 25.4962 28.2076 25.4413 28.1936C25.2615 28.1447 25.0832 28.0867 24.9068 28.0267C24.8023 27.9898 24.7 27.9511 24.5965 27.9104C24.5224 27.9601 24.4446 28.0055 24.3645 28.0453C24.2235 28.1152 24.0714 28.1651 23.9159 28.1819C23.3005 28.2401 22.7597 27.874 22.5998 27.2804C22.4996 26.903 22.528 26.4988 22.528 26.1101C22.528 25.723 22.4986 25.3144 22.5998 24.9341C22.7699 24.3067 23.3493 23.9502 23.988 24.0411C24.2883 24.0826 24.5596 24.2304 24.7438 24.4712C24.841 24.5971 24.9111 24.7429 24.9615 24.8913C25.0083 25.032 25.0425 25.1759 25.1351 25.2934C25.3176 25.5232 25.6489 25.6421 25.9168 25.7278C26.2727 25.8428 26.6469 25.8994 27.0206 25.8994C27.6196 25.8994 28.3606 25.771 28.7946 25.3165C29.0908 25.0041 28.9806 24.46 28.5717 24.3186C28.1821 24.1864 27.85 24.1194 27.4703 24.0499C27.1205 23.9837 26.7705 23.9208 26.4221 23.8551C25.4635 23.6793 24.466 23.4413 23.762 22.7178C22.862 21.7954 22.6862 20.3358 23.3551 19.2279C23.684 18.6833 24.177 18.2421 24.7441 17.9558C25.0383 17.806 25.3519 17.6993 25.6716 17.624C25.7645 17.6009 25.7525 17.6095 25.7525 17.5259C25.7525 17.4555 25.7525 17.3826 25.7525 17.3094C25.7525 16.9664 25.7326 16.6133 25.7633 16.2717C25.8151 15.6654 26.1438 15.12 26.7843 15.0156C27.4103 14.9163 27.9943 15.2534 28.1777 15.8652C28.292 16.2441 28.2629 16.6537 28.2629 17.0469C28.2629 17.2122 28.2629 17.377 28.2629 17.5423C28.2629 17.5574 28.2629 17.5759 28.2629 17.5915C28.2629 17.5987 28.4255 17.626 28.4439 17.6294C28.5345 17.6473 28.625 17.6704 28.7139 17.6951C28.7869 17.7143 28.908 17.7827 28.968 17.7343C29.4836 17.316 30.3119 17.3319 30.7496 17.8518C31.0759 18.2434 31.0677 18.8672 31.0677 19.3485C31.0677 19.7932 31.1035 20.2632 30.9192 20.6785C30.658 21.2638 29.9625 21.5109 29.374 21.2936C29.0863 21.1903 28.8477 20.975 28.7123 20.7009C28.6716 20.6206 28.6404 20.5368 28.6164 20.451C28.6056 20.412 28.5956 20.3724 28.5872 20.3328C28.5576 20.3138 28.527 20.2955 28.4952 20.2796C28.3687 20.2082 28.2338 20.1524 28.0948 20.1067C27.7696 20.0038 27.4278 19.9712 27.0887 19.9762C26.7759 19.9804 26.4569 20.0068 26.1579 20.0984C25.7825 20.214 25.1357 20.6683 25.6467 21.0362C25.9514 21.2582 26.3912 21.3196 26.749 21.3903C27.0676 21.4511 27.3854 21.5148 27.7041 21.5757C28.6508 21.7623 29.6811 21.9553 30.4382 22.5978C29.9226 22.1614 31.1275 23.1748 30.4382 22.5978C31.6028 23.5738 31.8001 25.3432 30.9629 26.5969Z" fill="#fff"/>
</svg>
