<svg width="64" height="64" viewBox="0 0 64 64" fill="none" xmlns="http://www.w3.org/2000/svg">
<path  fill="#fff" d="M23.5198 45.333L34.6665 51.413V58.6663H15.9998C13.0398 58.6663 10.6665 56.293 10.6665 53.333V10.6663C10.6665 9.25185 11.2284 7.8953 12.2286 6.8951C13.2288 5.89491 14.5853 5.33301 15.9998 5.33301H18.6665V23.9997L25.3332 19.9997L31.9998 23.9997V5.33301H47.9998C49.4143 5.33301 50.7709 5.89491 51.7711 6.8951C52.7713 7.8953 53.3332 9.25185 53.3332 10.6663V33.4397L49.3332 31.253L23.5198 45.333ZM63.9998 45.333L49.3332 37.333L34.6665 45.333L49.3332 53.333L63.9998 45.333ZM39.9998 50.9063V56.2397L49.3332 61.333L58.6665 56.2397V50.9063L49.3332 55.9997L39.9998 50.9063Z"/>
</svg>
