<svg width="64" height="64" viewBox="0 0 64 64" fill="none" xmlns="http://www.w3.org/2000/svg">
<path d="M41.1628 28.0693L34.7792 44.4762L28.9678 36.2371L25.5513 40.7023L19.1072 30.0485L15.6268 38.0294H9.54676H0V42.6008H13.6086C20.0242 49.3044 29.1429 56.4087 29.5723 56.7419L30.3933 57.3795L31.2169 56.7454C31.6722 56.3947 42.4411 48.0796 48.6599 41.0734L50.6458 38.8364H45.6043L41.1628 28.0693Z" fill="#fff"/>
<path d="M55.9885 31.038C57.1392 28.6953 58.0798 25.7134 57.8881 21.8941C57.684 17.8371 56.0657 14.0245 53.3314 11.1587C50.5388 8.23195 46.8868 6.62012 43.0476 6.62012C37.1986 6.62012 32.4099 10.366 30.3947 12.2236C28.4379 10.3507 23.7804 6.6255 17.6988 6.6255C13.8601 6.6255 10.2078 8.23894 7.41466 11.1684C4.68014 14.036 3.06239 17.8497 2.85802 21.907C2.66575 25.7349 3.84921 29.6569 6.47537 33.8973L6.86985 34.5338H13.3637L18.5867 22.5451L25.8738 34.5792L29.0779 30.4077L33.8964 37.2481L41.0717 18.785L47.9086 35.3405H48.2243H53.3067H64.0001V31.038H55.9885Z" fill="#fff"/>
</svg>
