<svg width="54" height="60" viewBox="0 0 54 60" fill="none" xmlns="http://www.w3.org/2000/svg">
<path fill-rule="evenodd" clip-rule="evenodd" d="M15.7482 2.1C19.9202 0.996 24.3482 0 27.0002 0C29.6482 0 34.0802 0.996 38.2522 2.1C41.9734 3.0991 45.6704 4.18607 49.3402 5.36C51.4522 6.032 53.0442 7.852 53.3522 10.096C55.6442 26.884 50.3282 39.324 43.8842 47.556C41.1381 51.0888 37.8779 54.19 34.2122 56.756C32.9376 57.6488 31.5902 58.4329 30.1842 59.1C29.1042 59.596 27.9522 60 27.0002 60C26.0482 60 24.8962 59.596 23.8162 59.1C22.4099 58.4335 21.0625 57.6494 19.7882 56.756C16.124 54.1896 12.8651 51.0885 10.1202 47.556C3.66818 39.324 -1.64382 26.884 0.648185 10.096C0.801429 9.00828 1.25957 7.9862 1.96959 7.14806C2.67961 6.30991 3.61246 5.68998 4.66018 5.36C8.32998 4.1861 12.027 3.09913 15.7482 2.1ZM29.0602 29.636C30.3791 29.1534 31.4869 28.2235 32.1906 27.0082C32.8944 25.7929 33.1496 24.3692 32.9117 22.9851C32.6739 21.601 31.958 20.3442 30.8889 19.4336C29.8197 18.523 28.465 18.0163 27.0607 18.0017C25.6564 17.9871 24.2915 18.4656 23.2036 19.3538C22.1158 20.2421 21.374 21.4837 21.1075 22.8626C20.8409 24.2415 21.0665 25.6701 21.7449 26.8998C22.4234 28.1294 23.5116 29.0821 24.8202 29.592C24.7358 29.764 24.6765 29.9472 24.6442 30.136L23.3122 38.136C23.2646 38.4224 23.2799 38.7157 23.357 38.9956C23.4342 39.2755 23.5714 39.5352 23.759 39.7567C23.9467 39.9782 24.1803 40.1562 24.4437 40.2784C24.7071 40.4005 24.9939 40.4639 25.2842 40.464H28.6242C28.9157 40.4642 29.2037 40.4006 29.4681 40.2777C29.7325 40.1549 29.9668 39.9757 30.1546 39.7528C30.3425 39.5299 30.4794 39.2686 30.5556 38.9873C30.6319 38.7059 30.6457 38.4113 30.5962 38.124L29.2082 30.124C29.1799 29.9557 29.1301 29.7917 29.0602 29.636Z" fill="#fff"/>
</svg>
