<svg width="64" height="64" viewBox="0 0 64 64" fill="none" xmlns="http://www.w3.org/2000/svg">
<path d="M37.3998 23.0002C37.3998 22.0079 36.593 21.2002 35.5998 21.2002C34.6067 21.2002 33.7998 22.0079 33.7998 23.0002C33.7998 23.9924 34.6067 24.8002 35.5998 24.8002C36.593 24.8002 37.3998 23.9924 37.3998 23.0002Z" fill="#fff"/>
<path d="M21.1999 46.4002H49.9999C51.9881 46.4002 53.5999 44.7884 53.5999 42.8002V6.8002C53.5999 4.81187 51.9881 3.2002 49.9999 3.2002H17.5999C13.6234 3.2002 10.3999 6.42366 10.3999 10.4002V46.4002V50.0002C10.3999 55.9557 15.2445 60.8002 21.1999 60.8002H49.9999C51.988 60.8002 53.5999 59.1883 53.5999 57.2002C53.5999 55.2121 51.988 53.6002 49.9999 53.6002H21.1999C19.2153 53.6002 17.5999 51.9856 17.5999 50.0002C17.5999 48.0148 19.2153 46.4002 21.1999 46.4002ZM35.5999 28.4002C32.6221 28.4002 30.1999 25.978 30.1999 23.0002C30.1999 21.6122 30.7409 20.3578 31.6043 19.4002C30.7409 18.4426 30.1999 17.1882 30.1999 15.8002C30.1999 12.8224 32.6221 10.4002 35.5999 10.4002H39.1999C40.1948 10.4002 40.9999 11.2061 40.9999 12.2002C40.9999 13.1942 40.1948 14.0002 39.1999 14.0002H35.5999C34.6068 14.0002 33.7999 14.8079 33.7999 15.8002C33.7999 16.7924 34.6068 17.6002 35.5999 17.6002C38.5777 17.6002 40.9999 20.0224 40.9999 23.0002C40.9999 24.3882 40.4589 25.6426 39.5954 26.6002C40.459 27.5578 40.9999 28.8122 40.9999 30.2002C40.9999 33.178 38.5777 35.6002 35.5999 35.6002H31.9999C31.0049 35.6002 30.1999 34.7942 30.1999 33.8002C30.1999 32.8061 31.0049 32.0002 31.9999 32.0002H35.5999C36.5931 32.0002 37.3999 31.1924 37.3999 30.2002C37.3999 29.2079 36.5931 28.4002 35.5999 28.4002Z" fill="#fff"/>
</svg>
