<svg width="64" height="64" viewBox="0 0 64 64" fill="none" xmlns="http://www.w3.org/2000/svg">
<path d="M63.2082 8.40823C56.2882 3.16423 45.6362 0.0322266 34.7122 0.0322266C21.2042 0.0322266 10.1962 4.74823 4.51622 12.9722C1.84822 16.8322 0.372222 21.4082 0.128222 26.5642C-0.0877782 31.1562 0.684222 36.2362 2.42022 41.7002C8.34822 23.9242 24.9082 10.0082 44.0002 10.0082C44.0002 10.0082 26.1362 14.7082 14.9042 29.2722C12.3414 32.5747 10.2842 36.2402 8.80022 40.1482C5.628 47.7028 3.9961 55.8147 4.00022 64.0082H12.0002C12.0002 64.0082 10.7842 56.3682 12.8962 47.5842C16.0196 48.0299 19.1693 48.2664 22.3242 48.2922C29.6802 48.2922 34.9082 46.7002 38.7842 43.2842C42.2562 40.2242 44.1722 36.1082 46.2002 31.7562C49.2962 25.1042 52.8042 17.5682 62.9922 11.7482C63.2797 11.5843 63.5219 11.3516 63.6973 11.0709C63.8727 10.7903 63.9757 10.4706 63.9971 10.1404C64.0185 9.81015 63.9576 9.47978 63.82 9.17888C63.6823 8.87797 63.4721 8.61592 63.2082 8.41623V8.40823Z" fill="#fff"/>
</svg>
