<svg width="76" height="24" viewBox="0 0 76 24" fill="none" xmlns="http://www.w3.org/2000/svg">
<path fill-rule="evenodd" clip-rule="evenodd" d="M76 12L75.9997 13.2L75.9988 13.697L75.9973 14.0783L75.9952 14.3997L75.9925 14.6827L75.9892 14.9385L75.9852 15.1736L75.9807 15.3923L75.9756 15.5976L75.9698 15.7916L75.9635 15.9759L75.9566 16.1519L75.949 16.3206L75.9409 16.4827L75.9321 16.6389L75.9227 16.7898L75.9128 16.9358L75.9022 17.0774L75.891 17.2149L75.8792 17.3487L75.8668 17.4789L75.8538 17.6058L75.8401 17.7296L75.8259 17.8506L75.8111 17.9688L75.7956 18.0844L75.7795 18.1975L75.7628 18.3083L75.7455 18.4169L75.7276 18.5234L75.709 18.6279L75.6899 18.7303L75.6701 18.831L75.6497 18.9298L75.6287 19.0269L75.607 19.1223L75.5848 19.2161L75.5619 19.3084L75.5383 19.3991L75.5142 19.4884L75.4894 19.5763L75.464 19.6627L75.4379 19.7479L75.4112 19.8317L75.3839 19.9142L75.356 19.9955L75.3273 20.0756L75.2981 20.1545L75.2682 20.2323L75.2377 20.3089L75.2065 20.3844L75.1747 20.4588L75.1422 20.5321L75.109 20.6044L75.0752 20.6757L75.0407 20.7459L75.0056 20.8152L74.9698 20.8834L74.9333 20.9508L74.8962 21.0171L74.8584 21.0826L74.8199 21.1471L74.7807 21.2107L74.7408 21.2734L74.7003 21.3352L74.659 21.3962L74.6171 21.4563L74.5744 21.5156L74.5311 21.574L74.487 21.6316L74.4422 21.6883L74.3967 21.7443L74.3505 21.7995L74.3035 21.8538L74.2558 21.9074L74.2074 21.9602L74.1582 22.0122L74.1083 22.0634L74.0576 22.1139L74.0062 22.1636L73.954 22.2126L73.901 22.2609L73.8472 22.3084L73.7927 22.3551L73.7373 22.4012L73.6811 22.4465L73.6241 22.4911L73.5663 22.535L73.5077 22.5782L73.4482 22.6207L73.3878 22.6625L73.3266 22.7036L73.2645 22.744L73.2016 22.7837L73.1377 22.8228L73.073 22.8611L73.0073 22.8988L72.9406 22.9358L72.873 22.9721L72.8045 23.0078L72.735 23.0428L72.6644 23.0772L72.5929 23.1109L72.5203 23.1439L72.4467 23.1763L72.372 23.208L72.2962 23.2391L72.2193 23.2695L72.1413 23.2993L72.0621 23.3285L71.9817 23.357L71.9 23.3848L71.8172 23.4121L71.733 23.4387L71.6476 23.4646L71.5608 23.49L71.4726 23.5147L71.383 23.5388L71.2919 23.5622L71.1993 23.5851L71.1051 23.6073L71.0093 23.6289L70.9119 23.6498L70.8127 23.6702L70.7117 23.6899L70.6089 23.709L70.504 23.7275L70.3972 23.7454L70.2882 23.7627L70.177 23.7793L70.0635 23.7954L69.9475 23.8108L69.8289 23.8256L69.7076 23.8398L69.5834 23.8535L69.4561 23.8664L69.3255 23.8788L69.1913 23.8906L69.0534 23.9018L68.9114 23.9124L68.765 23.9224L68.6138 23.9317L68.4572 23.9405L68.2948 23.9486L68.1258 23.9562L67.9496 23.9632L67.765 23.9695L67.5708 23.9753L67.3655 23.9804L67.1469 23.985L66.912 23.9889L66.6568 23.9923L66.3748 23.995L66.0555 23.9972L65.6783 23.9987L65.1923 23.9997L58.3548 24L56.8573 23.9998L56.3431 23.9989L55.9535 23.9974L55.6267 23.9954L55.3396 23.9927L55.0806 23.9895L54.8429 23.9856L54.6219 23.9812L54.4146 23.9761L54.2187 23.9705L54.0327 23.9642L53.8552 23.9574L53.6851 23.9499L53.5217 23.9418L53.3643 23.9332L53.2122 23.9239L53.0651 23.914L52.9224 23.9035L52.7838 23.8924L52.6491 23.8808L52.518 23.8685L52.3902 23.8556L52.2655 23.842L52.1437 23.8279L52.0247 23.8132L51.9083 23.7979L51.7944 23.7819L51.6828 23.7654L51.5735 23.7482L51.4663 23.7304L51.3612 23.712L51.258 23.693L51.1567 23.6734L51.0573 23.6531L50.9595 23.6322L50.8635 23.6108L50.7691 23.5886L50.6762 23.5659L50.5849 23.5426L50.4951 23.5186L50.4067 23.494L50.3196 23.4687L50.234 23.4429L50.1496 23.4164L50.0666 23.3892L49.9847 23.3614L49.9042 23.333L49.8248 23.304L49.7465 23.2743L49.6694 23.244L49.5935 23.213L49.5186 23.1814L49.4448 23.1491L49.3721 23.1162L49.3004 23.0826L49.2297 23.0483L49.16 23.0134L49.0913 22.9779L49.0236 22.9416L48.9568 22.9047L48.8909 22.8672L48.826 22.8289L48.762 22.79L48.6989 22.7504L48.6367 22.7101L48.5753 22.6691L48.5149 22.6274L48.4552 22.585L48.3965 22.5419L48.3385 22.4981L48.2814 22.4537L48.2251 22.4084L48.1696 22.3625L48.1149 22.3159L48.061 22.2685L48.0079 22.2203L47.9555 22.1715L47.904 22.1219L47.8532 22.0715L47.8031 22.0204L47.7538 21.9685L47.7053 21.9158L47.6575 21.8624L47.6104 21.8082L47.5641 21.7531L47.5185 21.6973L47.4736 21.6407L47.4294 21.5832L47.3859 21.5249L47.3432 21.4658L47.3011 21.4058L47.2597 21.345L47.2191 21.2833L47.1791 21.2207L47.1398 21.1573L47.1012 21.0929L47.0633 21.0276L47.026 20.9614L46.9894 20.8942L46.9535 20.8261L46.9183 20.757L46.8837 20.6869L46.8498 20.6158L46.8166 20.5437L46.784 20.4705L46.752 20.3963L46.7207 20.321L46.6901 20.2445L46.6601 20.167L46.6307 20.0883L46.602 20.0084L46.574 19.9273L46.5466 19.8449L46.5198 19.7613L46.4936 19.6764L46.4681 19.5901L46.4432 19.5025L46.419 19.4134L46.3953 19.3229L46.3723 19.2309L46.35 19.1374L46.3282 19.0422L46.3071 18.9454L46.2866 18.8468L46.2667 18.7465L46.2475 18.6443L46.2288 18.5402L46.2108 18.434L46.1934 18.3258L46.1766 18.2153L46.1604 18.1026L46.1449 17.9873L46.1299 17.8696L46.1156 17.7491L46.1018 17.6257L46.0887 17.4993L46.0762 17.3696L46.0643 17.2365L46.053 17.0996L46.0424 16.9587L46.0323 16.8133L46.0228 16.6632L46.014 16.5079L46.0057 16.3468L45.9981 16.1793L45.991 16.0045L45.9846 15.8215L45.9788 15.6292L45.9736 15.4258L45.9689 15.2094L45.9649 14.9772L45.9615 14.7251L45.9587 14.447L45.9565 14.1327L45.9549 13.7633L45.9539 13.292L45.9535 12.4789L45.9537 10.8997L45.9545 10.372L45.9559 9.97759L45.9579 9.64855L45.9605 9.36031L45.9638 9.1007L45.9676 8.86264L45.972 8.64155L45.9771 8.43431L45.9827 8.23864L45.9889 8.05283L45.9958 7.87557L46.0032 7.70582L46.0113 7.54274L46.02 7.38563L46.0292 7.23392L46.0391 7.08713L46.0496 6.94483L46.0607 6.80668L46.0724 6.67237L46.0847 6.54161L46.0976 6.41418L46.1111 6.28987L46.1253 6.16849L46.14 6.04987L46.1554 5.93386L46.1714 5.82032L46.188 5.70914L46.2052 5.6002L46.223 5.49339L46.2414 5.38864L46.2605 5.28584L46.2802 5.18492L46.3005 5.08581L46.3214 4.98844L46.343 4.89275L46.3651 4.79869L46.3879 4.70619L46.4114 4.61521L46.4354 4.5257L46.4601 4.43762L46.4854 4.35093L46.5114 4.26559L46.5379 4.18157L46.5652 4.09882L46.593 4.01732L46.6215 3.93704L46.6507 3.85795L46.6805 3.78003L46.7109 3.70324L46.742 3.62757L46.7737 3.553L46.8061 3.47949L46.8391 3.40704L46.8729 3.33561L46.9072 3.2652L46.9422 3.19579L46.9779 3.12736L47.0143 3.05989L47.0513 2.99337L47.0891 2.92778L47.1274 2.86312L47.1665 2.79936L47.2063 2.7365L47.2467 2.67453L47.2879 2.61342L47.3297 2.55318L47.3722 2.49379L47.4155 2.43524L47.4594 2.37752L47.5041 2.32062L47.5495 2.26454L47.5956 2.20926L47.6424 2.15478L47.69 2.10109L47.7383 2.04818L47.7873 1.99605L47.8372 1.94468L47.8877 1.89408L47.939 1.84423L47.9911 1.79513L48.044 1.74677L48.0976 1.69915L48.1521 1.65226L48.2073 1.6061L48.2634 1.56066L48.3202 1.51593L48.3779 1.47192L48.4364 1.42862L48.4958 1.38601L48.556 1.34411L48.617 1.3029L48.679 1.26239L48.7418 1.22256L48.8055 1.18341L48.8702 1.14494L48.9357 1.10715L49.0022 1.07004L49.0696 1.03359L49.138 0.997813L49.2074 0.962699L49.2777 0.928246L49.3491 0.894452L49.4215 0.861314L49.495 0.82883L49.5695 0.796997L49.6451 0.765812L49.7219 0.735275L49.7997 0.705381L49.8787 0.676129L49.9589 0.647518L50.0404 0.619545L50.123 0.592208L50.207 0.565505L50.2922 0.539436L50.3788 0.513996L50.4668 0.489187L50.5561 0.465005L50.647 0.441449L50.7393 0.418517L50.8333 0.396209L50.9288 0.374523L51.026 0.353458L51.1249 0.333011L51.2256 0.313183L51.3281 0.293972L51.4326 0.275377L51.5391 0.257396L51.6478 0.240029L51.7586 0.223275L51.8718 0.207133L51.9873 0.191601L52.1055 0.17668L52.2264 0.162368L52.3501 0.148664L52.4769 0.135568L52.607 0.123079L52.7405 0.111197L52.8778 0.09992L53.0191 0.0892483L53.1648 0.0791811L53.3153 0.0697181L53.471 0.0608585L53.6324 0.0526021L53.8003 0.0449483L53.9753 0.0378968L54.1585 0.0314472L54.351 0.0255992L54.5545 0.0203525L54.7708 0.0157068L55.0028 0.0116619L55.2545 0.00821764L55.5316 0.00537376L55.844 0.00313016L56.2098 0.00148671L56.672 0.000443342L57.4249 0L64.9913 0.000156662L65.5396 0.000913335L65.9431 0.00227006L66.2778 0.0042269L66.5703 0.00678395L66.8332 0.00994135L67.074 0.0136993L67.2974 0.0180578L67.5067 0.0230174L67.7042 0.028578L67.8917 0.0347401L68.0705 0.041504L68.2417 0.04887L68.4061 0.0568384L68.5645 0.0654097L68.7174 0.0745844L68.8653 0.0843628L69.0087 0.0947456L69.1478 0.105733L69.2831 0.117326L69.4148 0.129525L69.5432 0.142331L69.6683 0.155744L69.7906 0.169766L69.91 0.184396L70.0268 0.199636L70.1411 0.215486L70.253 0.231948L70.3627 0.249022L70.4702 0.266709L70.5757 0.28501L70.6792 0.303927L70.7807 0.32346L70.8805 0.343611L70.9785 0.364381L71.0748 0.38577L71.1695 0.407781L71.2626 0.430414L71.3541 0.453672L71.4442 0.477554L71.5328 0.502064L71.6201 0.527202L71.706 0.552971L71.7905 0.579371L71.8738 0.606404L71.9558 0.634073L72.0366 0.662379L72.1162 0.691325L72.1946 0.720911L72.2718 0.751141L72.348 0.782016L72.423 0.813539L72.497 0.845712L72.5699 0.878537L72.6418 0.912018L72.7126 0.946155L72.7825 0.980953L72.8513 1.01641L72.9192 1.05254L72.9861 1.08934L73.0521 1.1268L73.1172 1.16495L73.1813 1.20377L73.2446 1.24327L73.307 1.28346L73.3684 1.32434L73.4291 1.36591L73.4888 1.40817L73.5477 1.45114L73.6058 1.49481L73.6631 1.5392L73.7195 1.5843L73.7751 1.63011L73.8299 1.67665L73.884 1.72393L73.9372 1.77193L73.9897 1.82068L74.0414 1.87017L74.0923 1.92041L74.1424 1.97141L74.1918 2.02318L74.2405 2.07572L74.2884 2.12903L74.3356 2.18314L74.3821 2.23803L74.4278 2.29373L74.4728 2.35023L74.5171 2.40756L74.5607 2.46571L74.6036 2.5247L74.6457 2.58453L74.6872 2.64522L74.728 2.70678L74.7681 2.76922L74.8075 2.83255L74.8462 2.89677L74.8842 2.96192L74.9216 3.02799L74.9583 3.095L74.9943 3.16297L75.0296 3.23192L75.0643 3.30185L75.0983 3.37278L75.1317 3.44474L75.1644 3.51774L75.1964 3.59181L75.2278 3.66695L75.2586 3.7432L75.2887 3.82058L75.3181 3.89911L75.3469 3.97881L75.3751 4.05973L75.4026 4.14187L75.4295 4.22528L75.4557 4.30999L75.4814 4.39603L75.5064 4.48344L75.5307 4.57226L75.5544 4.66253L75.5775 4.7543L75.6 4.84761L75.6218 4.94251L75.6431 5.03907L75.6637 5.13734L75.6837 5.23739L75.703 5.33928L75.7217 5.44309L75.7399 5.54891L75.7574 5.65682L75.7743 5.76691L75.7905 5.87931L75.8062 5.99412L75.8212 6.11148L75.8357 6.23152L75.8495 6.35441L75.8627 6.48033L75.8753 6.60946L75.8873 6.74204L75.8987 6.87833L75.9094 7.0186L75.9196 7.1632L75.9292 7.3125L75.9381 7.46697L75.9465 7.62712L75.9542 7.79358L75.9614 7.96714L75.9679 8.14871L75.9738 8.33949L75.9791 8.54096L75.9838 8.75511L75.988 8.98459L75.9915 9.23321L75.9944 9.50665L75.9967 9.81417L75.9984 10.1729L75.9995 10.6221L76 11.3227L76 12ZM58.3256 18.5999H63.0388C67.5039 18.5999 70.1085 15.7713 70.1085 11.9622C70.1085 8.11535 67.5393 5.39992 63.1096 5.39992H58.3256V18.5999ZM55.969 18.5999H52.4341V5.39992H55.969V18.5999ZM12.9345 12.0001C12.9345 15.6407 10.3439 18.9001 6.44886 18.9001C2.55382 18.9001 0 15.6788 0 12.0001C0 8.35947 2.59057 5.10008 6.4856 5.10008C10.3806 5.10008 12.9345 8.32135 12.9345 12.0001ZM0.992132 12.0001C0.992132 15.2976 3.30711 18.0042 6.4856 18.0042C9.6641 18.0042 11.9423 15.3357 11.9423 12.0001C11.9423 8.70257 9.62735 5.99594 6.44886 5.99594C3.27036 5.99594 0.992132 8.66444 0.992132 12.0001ZM17.4074 18.5999H16.4961V5.39992H17.3892L26.1919 16.8839V5.39992H27.1032V18.5999H26.3924L17.4074 6.87078V18.5999ZM40.062 18.5999H30.8947V5.39992H39.9709V6.30506H31.8425V11.4908H39.1508V12.3959H31.8425V17.6948H40.062V18.5999ZM63.7447 16.2866C64.0926 16.2764 64.4882 16.2301 64.892 16.1262C64.9396 16.114 64.9885 16.1009 65.0388 16.0867C65.3502 15.9989 65.6867 15.8696 66.0335 15.6531C66.1179 15.6016 66.2009 15.5463 66.282 15.487L66.279 15.4857C66.5256 15.303 66.7755 15.0717 67.0235 14.7762C67.1253 14.6549 67.2998 14.3986 67.3991 14.1998C67.1698 13.9523 66.8212 13.7488 66.4941 13.5697L66.4592 13.5506C66.3077 13.4674 66.0336 13.3169 65.7775 13.2149C65.7504 13.2041 65.7219 13.1934 65.6929 13.1825C65.4718 13.0995 65.2136 13.0025 65.1875 12.7351C65.1674 12.5288 65.27 12.3999 65.3924 12.2463L65.3926 12.2459C65.4219 12.2091 65.4524 12.1709 65.4825 12.1299C65.8395 11.6443 66.1754 10.982 66.1147 10.0853C66.0551 9.20511 65.5021 8.52162 64.5763 8.41613C64.4691 8.40391 64.3647 8.39867 64.2634 8.40017C64.162 8.39867 64.0576 8.40391 63.9504 8.41613C63.0246 8.52162 62.4716 9.20511 62.412 10.0853C62.3513 10.982 62.6873 11.6443 63.0442 12.1299C63.0745 12.1711 63.105 12.2094 63.1344 12.2463C63.2567 12.3999 63.3594 12.5288 63.3393 12.7351C63.3132 13.0025 63.0549 13.0995 62.8339 13.1825C62.8048 13.1934 62.7764 13.2041 62.7492 13.2149C62.4931 13.3169 62.2191 13.4674 62.0675 13.5506L62.0326 13.5697C61.5473 13.8354 61.0144 14.1549 60.8947 14.592C60.7483 15.1268 60.6693 15.798 60.6839 16.2866H61.5127C61.7436 16.2866 61.9815 16.289 62.2237 16.2915C62.721 16.2964 63.2361 16.3016 63.7447 16.2866Z" fill="white"/>
</svg>
