<svg width="64" height="64" viewBox="0 0 64 64" fill="none" xmlns="http://www.w3.org/2000/svg">
<path d="M24.0002 29.3333C26.1098 29.3333 28.1721 28.7077 29.9262 27.5357C31.6804 26.3636 33.0475 24.6977 33.8549 22.7486C34.6622 20.7996 34.8734 18.6548 34.4619 16.5857C34.0503 14.5166 33.0344 12.616 31.5426 11.1242C30.0509 9.63244 28.1503 8.61654 26.0811 8.20496C24.012 7.79339 21.8673 8.00462 19.9182 8.81196C17.9691 9.61929 16.3032 10.9865 15.1312 12.7406C13.9591 14.4947 13.3335 16.557 13.3335 18.6667C13.3335 21.4956 14.4573 24.2088 16.4577 26.2091C18.4581 28.2095 21.1712 29.3333 24.0002 29.3333ZM45.3335 34.6667C46.9157 34.6667 48.4625 34.1975 49.7781 33.3184C51.0937 32.4394 52.119 31.1899 52.7245 29.7281C53.33 28.2663 53.4885 26.6578 53.1798 25.1059C52.8711 23.5541 52.1092 22.1286 50.9904 21.0098C49.8715 19.891 48.4461 19.1291 46.8942 18.8204C45.3424 18.5117 43.7338 18.6701 42.272 19.2756C40.8102 19.8811 39.5608 20.9065 38.6817 22.2221C37.8027 23.5377 37.3335 25.0844 37.3335 26.6667C37.3335 28.7884 38.1763 30.8232 39.6766 32.3235C41.1769 33.8238 43.2118 34.6667 45.3335 34.6667ZM56.0002 53.3333C56.7074 53.3333 57.3857 53.0524 57.8858 52.5523C58.3859 52.0522 58.6668 51.3739 58.6668 50.6667C58.6647 48.1744 57.9641 45.7326 56.6445 43.6184C55.3248 41.5041 53.4391 39.802 51.2011 38.7053C48.9631 37.6085 46.4625 37.1609 43.9831 37.4133C41.5036 37.6658 39.1445 38.6081 37.1735 40.1333C34.5615 37.5316 31.2376 35.7616 27.621 35.0465C24.0044 34.3314 20.257 34.7032 16.8514 36.115C13.4459 37.5269 10.5346 39.9156 8.48481 42.9798C6.43501 46.0441 5.33848 49.6467 5.3335 53.3333C5.3335 54.0406 5.61445 54.7189 6.11454 55.219C6.61464 55.7191 7.29292 56 8.00016 56H40.0002C40.7074 56 41.3857 55.7191 41.8858 55.219C42.3859 54.7189 42.6668 54.0406 42.6668 53.3333" fill="#fff"/>
</svg>
