<svg width="47" height="56" viewBox="0 0 47 56" fill="none" xmlns="http://www.w3.org/2000/svg">
<path fill-rule="evenodd" clip-rule="evenodd" d="M7.1956 6.79394C11.5199 2.44385 17.385 0 23.5005 0C29.616 0 35.481 2.44385 39.8053 6.79394C44.1297 11.144 46.5591 17.044 46.5591 23.196C46.5591 29.3479 44.1297 35.2479 39.8053 39.598L23.5005 56L7.1956 39.598C5.05427 37.4441 3.35566 34.887 2.19677 32.0728C1.03788 29.2585 0.441406 26.2421 0.441406 23.196C0.441406 20.1498 1.03788 17.1334 2.19677 14.3192C3.35566 11.5049 5.05427 8.94781 7.1956 6.79394ZM23.5005 29.823C25.2477 29.823 26.9233 29.1248 28.1588 27.882C29.3942 26.6392 30.0883 24.9536 30.0883 23.196C30.0883 21.4383 29.3942 19.7527 28.1588 18.5099C26.9233 17.2671 25.2477 16.5689 23.5005 16.5689C21.7533 16.5689 20.0776 17.2671 18.8422 18.5099C17.6067 19.7527 16.9126 21.4383 16.9126 23.196C16.9126 24.9536 17.6067 26.6392 18.8422 27.882C20.0776 29.1248 21.7533 29.823 23.5005 29.823Z" fill="#fff"/>
</svg>
