<svg width="64" height="64" viewBox="0 0 64 64" fill="none" xmlns="http://www.w3.org/2000/svg">
<path d="M57.8031 46.3565V20.8618C57.8031 19.7262 56.8826 18.8057 55.747 18.8057H44.2333V16.1328H55.4079C56.5433 16.1328 57.4638 15.2121 57.4638 14.0768V5.25629C57.4638 4.12089 56.5433 3.2002 55.4079 3.2002H28.9467C27.8115 3.2002 26.8908 4.12089 26.8908 5.25629V14.0768C26.8908 15.2121 27.8115 16.1328 28.9467 16.1328H40.1215V18.8057H8.25287C7.11728 18.8057 6.19678 19.7262 6.19678 20.8618V46.3567H57.8031V46.3565ZM47.5079 24.8566C47.8905 24.474 48.4211 24.2542 48.9618 24.2542C49.5044 24.2542 50.0329 24.474 50.4153 24.8566C50.7999 25.239 51.0179 25.7694 51.0179 26.3103C51.0179 26.8509 50.7999 27.3816 50.4153 27.7638C50.0331 28.1464 49.5044 28.3664 48.9618 28.3664C48.4211 28.3664 47.8907 28.1464 47.5079 27.7638C47.1257 27.3818 46.9057 26.8509 46.9057 26.3103C46.9055 25.7694 47.1257 25.239 47.5079 24.8566ZM47.5079 31.6414C47.8905 31.259 48.4211 31.039 48.9618 31.039C49.5025 31.039 50.0329 31.2588 50.4153 31.6414C50.7999 32.0238 51.0179 32.5546 51.0179 33.0953C51.0179 33.636 50.7999 34.1664 50.4153 34.5488C50.0331 34.9312 49.5025 35.1512 48.9618 35.1512C48.4211 35.1512 47.8907 34.9312 47.5079 34.5488C47.1257 34.1666 46.9057 33.636 46.9057 33.0953C46.9057 32.5546 47.1257 32.0238 47.5079 31.6414ZM47.5079 38.4264C47.8905 38.0438 48.4211 37.824 48.9618 37.824C49.5044 37.824 50.0329 38.0438 50.4153 38.4264C50.7999 38.8088 51.0179 39.3397 51.0179 39.8801C51.0179 40.4208 50.7999 40.9514 50.4153 41.3338C50.0331 41.7162 49.5025 41.9362 48.9618 41.9362C48.4211 41.9362 47.8927 41.7162 47.5079 41.3338C47.1257 40.9516 46.9057 40.4208 46.9057 39.8801C46.9055 39.3395 47.1257 38.8088 47.5079 38.4264ZM40.7231 24.8566C41.1053 24.474 41.6359 24.2542 42.1768 24.2542C42.7196 24.2542 43.2479 24.474 43.6303 24.8566C44.0146 25.239 44.2327 25.7694 44.2327 26.3103C44.2327 26.8509 44.0148 27.3816 43.6303 27.7638C43.2479 28.1464 42.7175 28.3664 42.1768 28.3664C41.6359 28.3664 41.1055 28.1464 40.7231 27.7638C40.3405 27.3818 40.1207 26.8509 40.1207 26.3103C40.1207 25.7694 40.3405 25.239 40.7231 24.8566ZM40.7231 31.6414C41.1053 31.259 41.6359 31.039 42.1768 31.039C42.7175 31.039 43.2479 31.2588 43.6303 31.6414C44.0125 32.0238 44.2327 32.5546 44.2327 33.0953C44.2327 33.636 44.0127 34.1664 43.6303 34.5488C43.2479 34.9312 42.7175 35.1512 42.1768 35.1512C41.6359 35.1512 41.1055 34.9312 40.7231 34.5488C40.3405 34.1666 40.1207 33.636 40.1207 33.0953C40.1207 32.5546 40.3405 32.0238 40.7231 31.6414ZM40.7231 38.4264C41.1053 38.0438 41.6359 37.824 42.1768 37.824C42.7196 37.824 43.2479 38.0438 43.6303 38.4264C44.0146 38.8088 44.2327 39.3397 44.2327 39.8801C44.2327 40.4208 44.0148 40.9514 43.6303 41.3338C43.2479 41.7162 42.7175 41.9362 42.1768 41.9362C41.6359 41.9362 41.1055 41.7162 40.7231 41.3338C40.3405 40.9516 40.1207 40.4208 40.1207 39.8801C40.1207 39.3395 40.3405 38.8088 40.7231 38.4264ZM33.9379 24.8566C34.3205 24.474 34.8511 24.2542 35.3918 24.2542C35.9346 24.2542 36.4629 24.474 36.8453 24.8566C37.2298 25.239 37.4479 25.7694 37.4479 26.3103C37.4479 26.8509 37.2298 27.3816 36.8453 27.7638C36.4631 28.1464 35.9346 28.3664 35.3918 28.3664C34.8511 28.3664 34.3207 28.1464 33.9379 27.7638C33.5557 27.3818 33.3357 26.8509 33.3357 26.3103C33.3357 25.7694 33.5557 25.239 33.9379 24.8566ZM33.9379 31.6414C34.3205 31.259 34.8511 31.039 35.3918 31.039C35.9326 31.039 36.4629 31.2588 36.8453 31.6414C37.2279 32.0238 37.4479 32.5546 37.4479 33.0953C37.4479 33.636 37.2279 34.1664 36.8453 34.5488C36.4631 34.9312 35.9326 35.1512 35.3918 35.1512C34.8511 35.1512 34.3207 34.9312 33.9379 34.5488C33.5557 34.1666 33.3357 33.636 33.3357 33.0953C33.3357 32.5546 33.5557 32.0238 33.9379 31.6414ZM33.9379 38.4264C34.3205 38.0438 34.8511 37.824 35.3918 37.824C35.9346 37.824 36.4629 38.0438 36.8453 38.4264C37.2279 38.8088 37.4479 39.3397 37.4479 39.8801C37.4479 40.4208 37.2279 40.9514 36.8453 41.3338C36.4631 41.7162 35.9326 41.9362 35.3918 41.9362C34.8511 41.9362 34.3207 41.7162 33.9379 41.3338C33.5557 40.9516 33.3357 40.4208 33.3357 39.8801C33.3357 39.3395 33.5557 38.8088 33.9379 38.4264ZM20.3682 31.6414C20.7506 31.259 21.2813 31.039 21.8219 31.039C22.3628 31.039 22.8932 31.2588 23.2756 31.6414C23.6602 32.0238 23.878 32.5546 23.878 33.0953C23.878 33.636 23.6602 34.1664 23.2756 34.5488C22.8934 34.9312 22.3628 35.1512 21.8219 35.1512C21.2813 35.1512 20.7508 34.9312 20.3682 34.5488C19.9858 34.1666 19.7658 33.636 19.7658 33.0953C19.7658 32.5546 19.9858 32.0238 20.3682 31.6414ZM20.3682 38.4264C20.7506 38.0438 21.2813 37.824 21.8219 37.824C22.3628 37.824 22.8932 38.0438 23.2756 38.4264C23.6602 38.8088 23.878 39.3397 23.878 39.8801C23.878 40.4208 23.6602 40.9514 23.2756 41.3338C22.8934 41.7162 22.3628 41.9362 21.8219 41.9362C21.2813 41.9362 20.7508 41.7162 20.3682 41.3338C19.9858 40.9516 19.7658 40.4208 19.7658 39.8801C19.7656 39.3395 19.9858 38.8088 20.3682 38.4264ZM13.5832 31.6414C13.9658 31.259 14.4964 31.039 15.0371 31.039C15.5778 31.039 16.1082 31.2588 16.4906 31.6414C16.8752 32.0238 17.0932 32.5546 17.0932 33.0953C17.0932 33.636 16.8752 34.1664 16.4906 34.5488C16.1084 34.9312 15.5778 35.1512 15.0371 35.1512C14.4964 35.1512 13.966 34.9312 13.5832 34.5488C13.2008 34.1666 12.981 33.636 12.981 33.0953C12.981 32.5546 13.2008 32.0238 13.5832 31.6414ZM13.5832 38.4264C13.9658 38.0438 14.4964 37.824 15.0371 37.824C15.5797 37.824 16.1082 38.0438 16.4906 38.4264C16.8732 38.8088 17.0932 39.3397 17.0932 39.8801C17.0932 40.4208 16.8732 40.9514 16.4906 41.3338C16.1084 41.7162 15.5778 41.9362 15.0371 41.9362C14.4964 41.9362 13.966 41.7162 13.5832 41.3338C13.2008 40.9516 12.981 40.4208 12.981 39.8801C12.981 39.3395 13.2008 38.8088 13.5832 38.4264Z" fill="#fff"/>
<path d="M2.8042 49.6465V58.7443C2.8042 59.8797 3.72509 60.8004 4.86029 60.8004H59.1401C60.2753 60.8004 61.1958 59.8797 61.1958 58.7443V49.6465H2.8042Z" fill="#fff"/>
</svg>
