<svg width="64" height="64" viewBox="0 0 64 64" fill="none" xmlns="http://www.w3.org/2000/svg">
<path d="M17.0666 0C11.2469 0 4.2666 3.17013 4.2666 11.7163V51.2C4.2666 51.2 4.2666 55.4667 8.53327 55.4667V59.7333C8.53327 59.7333 8.53327 64 12.7999 64C17.0666 64 17.0666 59.7333 17.0666 59.7333V55.4667H46.9333V59.7333C46.9333 59.7333 46.9333 64 51.1999 64C55.4666 64 55.4666 59.7333 55.4666 59.7333V55.4667C55.4666 55.4667 59.7333 55.4667 59.7333 51.2V11.7163C59.7333 2.99093 54.4597 0 48.6399 0H17.0666ZM18.1333 6.4H45.8666C46.1495 6.4 46.4208 6.51238 46.6208 6.71242C46.8209 6.91246 46.9333 7.18377 46.9333 7.46667C46.9333 7.74956 46.8209 8.02087 46.6208 8.22091C46.4208 8.42095 46.1495 8.53333 45.8666 8.53333H18.1333C17.8504 8.53333 17.5791 8.42095 17.379 8.22091C17.179 8.02087 17.0666 7.74956 17.0666 7.46667C17.0666 7.18377 17.179 6.91246 17.379 6.71242C17.5791 6.51238 17.8504 6.4 18.1333 6.4ZM12.7999 12.8H51.1999C55.4666 12.8 55.4666 16.9259 55.4666 16.9259V29.8667C55.4666 29.8667 55.4666 34.1333 51.1999 34.1333H12.7999C8.53327 34.1333 8.53327 29.8667 8.53327 29.8667V17.0667C8.53327 17.0667 8.53327 12.8 12.7999 12.8ZM12.7999 42.6667C13.9315 42.6667 15.0168 43.1162 15.8169 43.9163C16.6171 44.7165 17.0666 45.8017 17.0666 46.9333C17.0666 48.0649 16.6171 49.1502 15.8169 49.9503C15.0168 50.7505 13.9315 51.2 12.7999 51.2C11.6683 51.2 10.5831 50.7505 9.78295 49.9503C8.98279 49.1502 8.53327 48.0649 8.53327 46.9333C8.53327 45.8017 8.98279 44.7165 9.78295 43.9163C10.5831 43.1162 11.6683 42.6667 12.7999 42.6667ZM51.1999 42.6667C52.3315 42.6667 53.4168 43.1162 54.2169 43.9163C55.0171 44.7165 55.4666 45.8017 55.4666 46.9333C55.4666 48.0649 55.0171 49.1502 54.2169 49.9503C53.4168 50.7505 52.3315 51.2 51.1999 51.2C50.0683 51.2 48.9831 50.7505 48.1829 49.9503C47.3828 49.1502 46.9333 48.0649 46.9333 46.9333C46.9333 45.8017 47.3828 44.7165 48.1829 43.9163C48.9831 43.1162 50.0683 42.6667 51.1999 42.6667Z" fill="#fff"/>
</svg>
