<svg width="64" height="64" viewBox="0 0 64 64" fill="none" xmlns="http://www.w3.org/2000/svg">
<path d="M16.6753 9.98269V62.6325C13.4819 62.3412 10.9741 59.6898 10.9741 56.4219V16.1946C10.9728 12.9254 13.4832 10.2727 16.6753 9.98269ZM17.7607 62.6926H18.3289V9.92522H17.7607V62.6926ZM42.4464 9.92522H43.8388V62.6926H42.8357V64H39.9648V62.6926H24.0327V64H21.1593V62.6926H20.1562V9.92522H21.5511V1.56735C21.5511 0.702694 22.2512 0 23.1171 0H40.8791C41.7438 0 42.4451 0.702694 42.4451 1.56735V9.92522H42.4464ZM37.2899 23.8184C38.6495 23.8184 39.7506 22.7174 39.7506 21.3577C39.7506 19.998 38.6495 18.897 37.2899 18.897C35.9302 18.897 34.8278 19.998 34.8278 21.3577C34.8278 22.7174 35.9302 23.8184 37.2899 23.8184ZM33.6654 21.5105L28.7426 23.4475L31.4907 30.4313L36.4135 28.4944L33.6654 21.5105ZM24.6871 9.92522H39.3078V3.13339H24.6871V9.92522ZM24.1007 27.8753L27.1047 28.544L27.7748 25.5425L24.7707 24.8725L24.1007 27.8753ZM25.6301 34.2113C25.6301 36.2136 26.7573 37.8384 28.1496 37.8384C29.5433 37.8384 30.6704 36.2136 30.6704 34.2113C30.6704 32.2064 29.5446 30.5816 28.1496 30.5816C26.7573 30.5816 25.6301 32.2077 25.6301 34.2113ZM33.5661 40.61H26.5535V42.9466H33.5661V40.61ZM39.8995 33.536H32.8869V35.8727H39.8995V33.536ZM45.6726 62.6926H46.2407V9.92522H45.6726V62.6926ZM47.3248 9.98269V62.6325C50.517 62.3412 53.026 59.6898 53.026 56.4219V16.1946C53.0273 12.9254 50.5183 10.2727 47.3248 9.98269Z" fill="#fff"/>
</svg>
